:version 1.10
:name ASF
:units
  mass 1
  length 1
  angle deg
:documentation
  ASF file generated by Kaydara
:root
  axis xyz
  order  tx ty tz rx ry rz
  position 0 0 0
  orientation 0 0 0
:bonedata
  begin
    id 1
    name lowerbackDummy
    direction 0 0 0
    length 0
    axis 0 -0 0 xyz
  end
  begin
    id 2
    name lowerback
    direction 0.0149039 0.998517 -0.0523597
    length 4.68464
    axis 0 -0 0 xyz
    dof rx ry rz
    limits( -inf , inf )
( -inf , inf )
( -inf , inf )

  end
  begin
    id 3
    name upperback
    direction -0.00882659 0.999418 -0.0329624
    length 4.68933
    axis 0 -0 0 xyz
    dof rx ry rz
    limits( -inf , inf )
( -inf , inf )
( -inf , inf )

  end
  begin
    id 4
    name thorax
    direction -0.0165585 0.999826 -0.0085833
    length 4.68976
    axis 0 -0 0 xyz
    dof rx ry rz
    limits( -inf , inf )
( -inf , inf )
( -inf , inf )

  end
  begin
    id 5
    name lowerneck
    direction -0.0130877 0.999911 0.00260353
    length 3.85007
    axis 0 -0 0 xyz
    dof rx ry rz
    limits( -inf , inf )
( -inf , inf )
( -inf , inf )

  end
  begin
    id 6
    name upperneck
    direction -0.0348454 0.928205 -0.370435
    length 3.70427
    axis 0 -0 0 xyz
    dof rx ry rz
    limits( -inf , inf )
( -inf , inf )
( -inf , inf )

  end
  begin
    id 7
    name head
    direction 0 0 0
    length 0
    axis 0 0 0 xyz
    dof rx ry rz
    limits( -inf , inf )
( -inf , inf )
( -inf , inf )

  end
  begin
    id 8
    name lclavicle
    direction 0.987582 0.144023 0.0627671
    length 7.76078
    axis 0 -0 0 xyz
    dof rx ry rz
    limits( -inf , inf )
( -inf , inf )
( -inf , inf )

  end
  begin
    id 9
    name lhumerus
    direction 1 -4.48958e-011 -1.45183e-018
    length 12.0426
    axis 180 -30 -90 xyz
    dof rx ry rz
    limits( -inf , inf )
( -inf , inf )
( -inf , inf )

  end
  begin
    id 10
    name lradius
    direction 1 -4.48999e-011 3.74805e-027
    length 5.43051
    axis 180 -30 -90 xyz
    dof rz ry rx
    limits( -inf , inf )
( -inf , inf )
( -inf , inf )

  end
  begin
    id 11
    name lwrist
    direction 1 -4.48988e-011 -4.48237e-017
    length 2.71524
    axis -90 90 0 xyz
    dof rz rx ry
    limits( -inf , inf )
( -inf , inf )
( -inf , inf )

  end
  begin
    id 12
    name lhand
    direction 1 -4.48882e-011 -4.48237e-017
    length 1.61667
    axis -90 90 0 xyz
    dof ry rx rz
    limits( -inf , inf )
( -inf , inf )
( -inf , inf )

  end
  begin
    id 13
    name lfingers
    direction 0 0 0
    length 0
    axis 0 0 0 xyz
    dof rz ry rx
    limits( -inf , inf )
( -inf , inf )
( -inf , inf )

  end
  begin
    id 14
    name lthumb
    direction 0 0 0
    length 0
    axis 0 0 0 xyz
    dof ry rx rz
    limits( -inf , inf )
( -inf , inf )
( -inf , inf )

  end
  begin
    id 15
    name rclavicle
    direction -0.980998 0.169556 0.0943023
    length 7.31716
    axis 0 -0 0 xyz
    dof rx ry rz
    limits( -inf , inf )
( -inf , inf )
( -inf , inf )

  end
  begin
    id 16
    name rhumerus
    direction -1 -1.83355e-005 2.45537e-005
    length 12.4217
    axis 180 30 90 xyz
    dof rx ry rz
    limits( -inf , inf )
( -inf , inf )
( -inf , inf )

  end
  begin
    id 17
    name rradius
    direction -1 -4.48967e-011 0
    length 5.51244
    axis 180 30 90 xyz
    dof rz ry rx
    limits( -inf , inf )
( -inf , inf )
( -inf , inf )

  end
  begin
    id 18
    name rwrist
    direction -1 -4.48964e-011 -4.48237e-017
    length 2.75622
    axis -90 -90 0 xyz
    dof rz rx ry
    limits( -inf , inf )
( -inf , inf )
( -inf , inf )

  end
  begin
    id 19
    name rhand
    direction -1 -4.48882e-011 -4.48237e-017
    length 1.81335
    axis -90 -90 0 xyz
    dof ry rx rz
    limits( -inf , inf )
( -inf , inf )
( -inf , inf )

  end
  begin
    id 20
    name rfingers
    direction 0 0 0
    length 0
    axis 0 0 0 xyz
    dof rz ry rx
    limits( -inf , inf )
( -inf , inf )
( -inf , inf )

  end
  begin
    id 21
    name rthumb
    direction 0 0 0
    length 0
    axis 0 0 0 xyz
    dof ry rx rz
    limits( -inf , inf )
( -inf , inf )
( -inf , inf )

  end
  begin
    id 22
    name rfemurDummy
    direction -0.640058 -0.688614 0.340788
    length 5.51442
    axis 0 -0 0 xyz
  end
  begin
    id 23
    name rfemur
    direction -0.34202 -0.939693 0
    length 14.6194
    axis 0 -0 -20 xyz
    dof rx ry rz
    limits( -inf , inf )
( -inf , inf )
( -inf , inf )

  end
  begin
    id 24
    name rtibia
    direction -0.34202 -0.939693 0
    length 17.7267
    axis 0 -0 -20 xyz
    dof rz ry rx
    limits( -inf , inf )
( -inf , inf )
( -inf , inf )

  end
  begin
    id 25
    name rfoot
    direction -0.0979793 -0.269196 0.958089
    length 4.88571
    axis -90 -7.62852e-016 -20 xyz
    dof ry rx rz
    limits( -inf , inf )
( -inf , inf )
( -inf , inf )

  end
  begin
    id 26
    name rtoes
    direction 0 0 0
    length 0
    axis 0 0 0 xyz
    dof rz ry rx
    limits( -inf , inf )
( -inf , inf )
( -inf , inf )

  end
  begin
    id 27
    name lfemurDummy
    direction 0.653368 -0.678499 0.335782
    length 5.59662
    axis 0 -0 0 xyz
  end
  begin
    id 28
    name lfemur
    direction 0.34202 -0.939693 0
    length 14.6166
    axis 0 -0 20 xyz
    dof rx ry rz
    limits( -inf , inf )
( -inf , inf )
( -inf , inf )

  end
  begin
    id 29
    name ltibia
    direction 0.34202 -0.939693 0
    length 17.6582
    axis 0 -0 20 xyz
    dof rz ry rx
    limits( -inf , inf )
( -inf , inf )
( -inf , inf )

  end
  begin
    id 30
    name lfoot
    direction 0.0811271 -0.222895 0.971461
    length 5.14087
    axis -90 7.62852e-016 20 xyz
    dof ry rx rz
    limits( -inf , inf )
( -inf , inf )
( -inf , inf )

  end
  begin
    id 31
    name ltoes
    direction 0 0 0
    length 0
    axis 0 0 0 xyz
    dof rz ry rx
    limits( -inf , inf )
( -inf , inf )
( -inf , inf )

  end
:hierarchy
  begin
    root lowerbackDummy rfemurDummy lfemurDummy
    lowerbackDummy lowerback
    lowerback upperback
    upperback thorax
    thorax lowerneck lclavicle rclavicle
    lowerneck upperneck
    upperneck head
    lclavicle lhumerus
    lhumerus lradius
    lradius lwrist
    lwrist lhand lthumb
    lhand lfingers
    rclavicle rhumerus
    rhumerus rradius
    rradius rwrist
    rwrist rhand rthumb
    rhand rfingers
    rfemurDummy rfemur
    rfemur rtibia
    rtibia rfoot
    rfoot rtoes
    lfemurDummy lfemur
    lfemur ltibia
    ltibia lfoot
    lfoot ltoes
  end

:SAMPLES-PER-SECOND 30
:FULLY-SPECIFIED
:DEGREES
10
root  0.2371622117 36.49688781 -52.47600285 10.33679962 -0.6278430223 -4.417250156
lowerback  -1.420709968 1.43283999 6.958340168
upperback  -1.617830038 1.865200043 1.269359946
thorax  -0.6947900057 0.8729150295 -2.569979906
lowerneck  -21.24399948 -0.4345499873 -1.041260004
upperneck  33.1507988 0.9061089754 -2.987900019
head  15.17129993 -0.185472995 -0.8986859918
lclavicle  0 5.864150125e-015 -2.067359921e-014
lhumerus  -61.6548996 34.86869812 47.91989899
lradius  -3.273925938e-031 -1.322971272e-031 22.00329971
lwrist  -1.412450015e-030 -3.531125038e-031 -12.73340034
lhand  -7.09296965e-031 -5.334430218 22.25320053
lfingers  90 7.125020027 -90
lthumb  92.17375941 5.80132232 69.41774447
rclavicle  0 5.864150125e-015 -2.067359921e-014
rhumerus  -27.5128994 -4.321909904 -76.84249878
rradius  3.000505638e-031 1.861668594e-031 31.81760025
rwrist  7.062250077e-031 -0 -15.98810005
rhand  -3.549477981e-031 -5.829020023 16.34970093
rfingers  -90 -7.125020027 -90
rthumb  -77.77455128 -30.19542857 -66.69349381
rfemur  -14.87489986 15.99359989 29.11429977
rtibia  -0 0 27.28289986
rfoot  -0 -23.6970005 -23.47130013
rtoes  1.867274782 19.91619617 -95.46687113
lfemur  -41.2519989 -1.468700051 -18.29850006
ltibia  -0 0 45.17599869
lfoot  -0 -18.76269913 16.51689911
ltoes  -2.495550395 -19.85002372 -97.31404267
11
root  0.2444422151 36.52133191 -52.19844307 10.29609966 -0.4891709983 -4.267449856
lowerback  -1.422090054 1.321619987 6.794980049
upperback  -1.494879961 1.712039948 1.271569967
thorax  -0.5857089758 0.8040300012 -2.477319956
lowerneck  -21.4538002 -0.3175640106 -1.068830013
upperneck  33.17179871 1.145429969 -3.114079952
head  15.23530006 -0.1089029983 -0.9031580091
lclavicle  0 5.864150125e-015 -2.067359921e-014
lhumerus  -61.95600128 35.47919846 47.17089844
lradius  -3.278157647e-031 -1.312450562e-031 21.8192997
lwrist  -7.062250077e-031 3.531125038e-031 -13.24800014
lhand  -7.094201736e-031 -5.439960003 22.65519905
lfingers  90 7.125020027 -90
lthumb  92.30876503 6.191944857 69.50450793
rclavicle  0 5.864150125e-015 -2.067359921e-014
rhumerus  -27.29739952 -3.290210009 -77.12149811
rradius  2.970070672e-031 1.909849272e-031 32.74229813
rwrist  7.062250077e-031 -0 -16.49180031
rhand  -3.549027798e-031 -5.757390022 16.2404995
rfingers  -90 -7.125020027 -90
rthumb  -77.78221513 -30.08709397 -66.63910915
rfemur  -13.85369968 15.6796999 29.09830093
rtibia  -0 0 26.42149925
rfoot  -0 -23.51460075 -23.47629929
rtoes  2.223526396 19.8810459 -96.51354542
lfemur  -41.35910034 -1.79685998 -18.3477993
ltibia  -0 0 43.06499863
lfoot  -0 -18.90589905 16.57850075
ltoes  -2.548756258 -19.84353067 -97.47075814
12
root  0.2486444364 36.53688806 -51.91310973 10.24349976 -0.3586159945 -4.018889904
lowerback  -0.9402080178 1.38925004 6.775670052
upperback  -2.062809944 1.869410038 0.9503480196
thorax  -1.419250011 0.8426439762 -2.816819906
lowerneck  -20.18639946 -0.3702639937 -0.8091850281
upperneck  33.27740097 0.945340991 -3.124459982
head  14.99050045 -0.1511690021 -0.984104991
lclavicle  0 5.864150125e-015 -2.067359921e-014
lhumerus  -62.63660049 34.64780045 46.03110123
lradius  -3.285122513e-031 -1.294918574e-031 21.51320076
lwrist  -1.059337512e-030 -3.531125038e-031 -13.72789955
lhand  -7.084906604e-031 -4.583350182 21.43889999
lfingers  90 7.125020027 -90
lthumb  91.92097646 4.940975611 68.72341115
rclavicle  0 5.864150125e-015 -2.067359921e-014
rhumerus  -28.51740074 -3.105279922 -77.30690002
rradius  2.938650179e-031 1.957850649e-031 33.6731987
rwrist  1.412450015e-030 -1.765562519e-031 -16.70980072
rhand  -3.546396986e-031 -5.319210052 15.94550037
rfingers  -90 -7.125020027 -90
rthumb  -77.66078404 -29.7682116 -66.22192441
rfemur  -12.8114996 15.5017004 28.98279953
rtibia  -0 0 25.52529907
rfoot  -0 -23.52750015 -23.50749969
rtoes  2.606121166 19.83637374 -97.63977965
lfemur  -41.41590118 -2.158970118 -18.47249985
ltibia  -0 0 40.87110138
lfoot  -0 -18.35390091 17.00819969
ltoes  -2.669317458 -19.82830127 -97.82605149
13
root  0.2412377849 36.55844561 -51.63666733 10.31809998 -0.1432240009 -4.023769855
lowerback  -1.283059955 1.420050025 6.869430065
upperback  -2.023430109 1.87796998 0.8232570291
thorax  -1.178359985 0.8532969952 -2.990269899
lowerneck  -19.4279995 -0.443073988 -0.7933239937
upperneck  32.92449951 0.8176640272 -3.161420107
head  14.65320015 -0.1988559961 -1.013980031
lclavicle  0 5.864150125e-015 -2.067359921e-014
lhumerus  -62.00379944 33.72290039 47.05179977
lradius  -3.270007136e-031 -1.332627992e-031 22.17239952
lwrist  -7.062250077e-031 -3.531125038e-031 -12.68519974
lhand  -7.066469593e-031 -1.980110049 18.23240089
lfingers  90 7.125020027 -90
lthumb  90.72035224 1.641099901 66.29718362
rclavicle  0 5.864150125e-015 -2.067359921e-014
rhumerus  -28.57430077 -3.166739941 -77.35929871
rradius  2.918701518e-031 1.987467103e-031 34.25260162
rwrist  0 -8.827812596e-032 -17.09020042
rhand  -3.540831969e-031 -4.243509769 14.7031002
rfingers  -90 -7.125020027 -90
rthumb  -77.62779515 -28.51857019 -65.32414934
rfemur  -11.95709991 15.46899986 29.13430023
rtibia  -0 0 24.59740067
rfoot  -0 -23.4564991 -23.80540085
rtoes  3.132333162 19.76311725 -99.193163
lfemur  -41.61800003 -2.452630043 -18.26659966
ltibia  -0 0 38.71929932
lfoot  -0 -17.8260994 16.93969917
ltoes  -2.568911642 -19.84103455 -97.53013784
14
root  0.2237355615 36.57933333 -51.36977669 10.35569954 0.2363470048 -4.021029949
lowerback  -1.41099 1.390480042 6.874800205
upperback  -1.920899987 1.822059989 0.7148479819
thorax  -1.002509952 0.832687974 -3.100810051
lowerneck  -19.29940033 -0.4965130091 -0.8169779778
upperneck  32.75650024 0.6898499727 -3.02177
head  14.54389954 -0.2332669944 -0.9712910056
lclavicle  0 5.864150125e-015 -2.067359921e-014
lhumerus  -61.40090179 33.46689987 47.35860062
lradius  -3.265079696e-031 -1.344655576e-031 22.38330078
lwrist  -7.062250077e-031 -7.062250077e-031 -12.47189999
lhand  -3.533911997e-031 -2.275640011 18.64209938
lfingers  90 7.125020027 -90
lthumb  90.88964008 2.053988303 66.57505128
rclavicle  0 5.864150125e-015 -2.067359921e-014
rhumerus  -28.34799957 -3.16415 -77.48870087
rradius  2.906898369e-031 2.004690976e-031 34.59140015
rwrist  7.062250077e-031 -8.827812596e-032 -17.40019989
rhand  -3.54416641e-031 -4.916719913 13.39719963
rfingers  -90 -7.125020027 -90
rthumb  -78.6026045 -27.39402643 -66.34019743
rfemur  -10.9861002 15.44499969 29.35950089
rtibia  -0 0 23.58729935
rfoot  -0 -23.30999947 -24.25650024
rtoes  3.592929085 19.68763823 -100.5577848
lfemur  -41.76290131 -2.867739916 -17.99769974
ltibia  -0 0 36.59740067
lfoot  -0 -17.32620049 16.24250031
ltoes  -2.73002349 -19.82036102 -98.00505262
